/vscmnt/brussel_pixiu_data/_data_brussel/112/vsc11236/PredSimResults/SUBJ09mtu3D/worker2.mot
version=1
nRows=9
nColumns=50
inDegrees=yes
endheader
                time	         pelvis_tilt	         pelvis_list	     pelvis_rotation	           pelvis_tx	           pelvis_ty	           pelvis_tz	       hip_flexion_r	     hip_adduction_r	      hip_rotation_r	        knee_angle_r	       ankle_angle_r	         mtp_angle_r	       hip_flexion_l	     hip_adduction_l	      hip_rotation_l	        knee_angle_l	       ankle_angle_l	         mtp_angle_l	    lumbar_extension	      lumbar_bending	     lumbar_rotation	 ercspn_r/activation	 intobl_r/activation	 extobl_r/activation	    abd_r/activation	    add_r/activation	hamstrings_r/activation	bifemsh_r/activation	glut_max_r/activation	iliopsoas_r/activation	rect_fem_r/activation	  vasti_r/activation	gastroc_r/activation	 soleus_r/activation	tib_ant_r/activation	 ercspn_l/activation	 intobl_l/activation	 extobl_l/activation	    abd_l/activation	    add_l/activation	hamstrings_l/activation	bifemsh_l/activation	glut_max_l/activation	iliopsoas_l/activation	rect_fem_l/activation	  vasti_l/activation	gastroc_l/activation	 soleus_l/activation	tib_ant_l/activation	
          0.00000000	         -3.25285903	         -2.11005034	          8.00172959	          0.00000000	          0.98723586	         -0.00574858	         28.35721639	         -0.47106352	         -8.42733752	         -6.24676705	          5.25495713	          0.24191707	        -13.14954470	         -3.78593636	         -4.47823087	        -12.96230586	          8.27967920	         33.17903414	        -13.99956568	          0.58024852	         -3.15757856	          0.01112378	          0.14349581	          0.05084434	          0.02831649	          0.20760900	          0.06637833	          0.15922544	          0.07732217	          0.11879022	          0.02212465	          0.01000079	          0.01758809	          0.01456214	          0.30138451	          0.01072665	          0.01000767	          0.01739684	          0.02397873	          0.02129132	          0.05434411	          0.19687804	          0.02120367	          0.01001138	          0.01000277	          0.01000140	          0.17754747	          0.27775215	          0.01000018	
          0.01240451	         -3.25228262	         -2.13474938	          7.92019376	          0.01997346	          0.98521771	         -0.00522823	         28.15854643	         -0.34174171	         -8.40541749	         -7.93758325	          4.92499885	          0.20838864	        -13.90660628	         -3.99124965	         -5.00371508	        -13.62183709	          7.02612015	         34.91254546	        -13.52460002	          0.95274362	         -3.24320447	          0.01000182	          0.11891213	          0.04213362	          0.11497628	          0.18773405	          0.06996656	          0.13194760	          0.11122732	          0.09843886	          0.01833571	          0.01000033	          0.01457572	          0.01206763	          0.33768875	          0.01000281	          0.01000070	          0.01441969	          0.01987068	          0.01764405	          0.04505656	          0.17911600	          0.01757110	          0.01000373	          0.01000155	          0.01000094	          0.14712996	          0.24865097	          0.01000014	
          0.02480902	         -3.23867309	         -2.15721698	          7.80225124	          0.04011544	          0.98356380	         -0.00463951	         27.89732792	         -0.20987662	         -8.36958847	         -9.52592456	          4.40299445	          0.20131244	        -14.44268220	         -4.21057892	         -5.54731858	        -14.69763015	          5.61923188	         36.60552086	        -13.04114566	          1.32690450	         -3.30873830	          0.01000857	          0.09853995	          0.03491524	          0.17809240	          0.19853611	          0.06422542	          0.10934267	          0.14765828	          0.08157413	          0.01519631	          0.01000036	          0.01207890	          0.01000044	          0.37342946	          0.03702752	          0.01000053	          0.01195006	          0.01646642	          0.01462250	          0.03735416	          0.14843497	          0.01456087	          0.01856591	          0.01000186	          0.01000070	          0.12192344	          0.20605248	          0.01000015	
          0.03721353	         -3.21402961	         -2.17192490	          7.64952378	          0.06007942	          0.98248398	         -0.00397822	         27.72886081	         -0.09030174	         -8.33939177	        -11.28078842	          3.91418051	          0.16727843	        -14.64924109	         -4.44758246	         -6.09421161	        -16.33701073	          4.06857559	         38.13468594	        -12.58836069	          1.69740786	         -3.35106836	          0.01004379	          0.08165795	          0.02893352	          0.22247553	          0.25690884	          0.05861654	          0.09061032	          0.16786241	          0.06759871	          0.01259575	          0.04161893	          0.01001088	          0.01000193	          0.39277810	          0.05364786	          0.01000082	          0.01000132	          0.01364539	          0.06405306	          0.03099264	          0.12300786	          0.01206640	          0.09963906	          0.01000157	          0.01000065	          0.10103532	          0.17075118	          0.01000014	
          0.04961803	         -3.17997989	         -2.17042063	          7.46335249	          0.07967656	          0.98209784	         -0.00326514	         27.62872552	          0.00747736	         -8.32542849	        -13.18711992	          3.70543852	          0.13216297	        -14.43294772	         -4.70355601	         -6.65014507	        -18.67611120	          2.39575898	         39.30835586	        -12.18578803	          2.05650673	         -3.36789384	          0.01109125	          0.06766821	          0.02397662	          0.24659841	          0.27496348	          0.05866253	          0.07508731	          0.18140651	          0.05601759	          0.01044313	          0.10273224	          0.01000435	          0.01000551	          0.39174233	          0.07925413	          0.01000072	          0.01000213	          0.01130768	          0.11644263	          0.02573913	          0.10193731	          0.01000020	          0.09385847	          0.01000080	          0.01000019	          0.08372578	          0.14149773	          0.01000037	
          0.06202254	         -3.13944092	         -2.13808692	          7.24157801	          0.09880336	          0.98251110	         -0.00253273	         27.46065704	          0.08643441	         -8.31099114	        -14.97685188	          3.72337586	          0.10350545	        -13.74236557	         -4.97695716	         -7.25066430	        -21.79324101	          0.71139705	         39.66281796	        -11.84232630	          2.38956217	         -3.35585268	          0.01002890	          0.05607522	          0.01986895	          0.24648527	          0.27800618	          0.06125526	          0.06222384	          0.18502540	          0.04642057	          0.01001295	          0.14702716	          0.01003290	          0.01050006	          0.37680695	          0.07473201	          0.01000068	          0.01000354	          0.01000010	          0.15621381	          0.02143431	          0.08447490	          0.01000017	          0.07777954	          0.01000068	          0.01000014	          0.06938175	          0.11725604	          0.01000017	
          0.07442705	         -3.09468285	         -2.06243915	          6.98069246	          0.11742382	          0.98373472	         -0.00180983	         27.12237955	          0.14870569	         -8.27595770	        -16.45220098	          3.90839820	          0.08587751	        -12.57391263	         -5.27128364	         -7.88514711	        -25.66037033	         -1.05475577	         39.03248236	        -11.55985120	          2.68419802	         -3.31104737	          0.01001289	          0.04646835	          0.01646504	          0.22643445	          0.27430655	          0.06733268	          0.05156425	          0.16406774	          0.03846773	          0.01000919	          0.18553968	          0.01000222	          0.01000058	          0.35475037	          0.06193575	          0.01000047	          0.04306155	          0.01000014	          0.19232219	          0.02755632	          0.07000375	          0.01000015	          0.06445464	          0.01000045	          0.01000009	          0.05749518	          0.09716749	          0.01503571	
          0.08683156	         -3.04774514	         -1.93635315	          6.67884975	          0.13549449	          0.98568305	         -0.00110157	         26.57433297	          0.19681561	         -8.18586498	        -17.52666907	          4.22430908	          0.08059348	        -10.96560548	         -5.58713412	         -8.50786664	        -30.15231707	         -2.93118757	         37.23253368	        -11.34326380	          2.93023338	         -3.23542601	          0.01000720	          0.03850735	          0.01364433	          0.19257113	          0.22731475	          0.06621068	          0.04273085	          0.13596066	          0.03187740	          0.01000709	          0.22016159	          0.01000721	          0.01000181	          0.32124553	          0.05133706	          0.03958589	          0.11053144	          0.01000013	          0.18986774	          0.02285572	          0.05801126	          0.01000033	          0.05341244	          0.01000044	          0.01000011	          0.04764507	          0.08052055	          0.05694175	
          0.09923607	         -3.00051266	         -1.76533581	          6.34336255	          0.15290294	          0.98820589	         -0.00039268	         25.84811454	          0.23585843	         -8.00780825	        -18.23811365	          4.67188363	          0.11997032	         -8.98455076	         -5.91621965	         -9.01955586	        -35.13082221	         -4.58201198	         33.79136986	        -11.20693928	          3.12495284	         -3.13631440	          0.01000294	          0.03191024	          0.01130692	          0.15959296	          0.18837159	          0.06353515	          0.03541070	          0.11266941	          0.02641614	          0.01000728	          0.23810986	          0.01000292	          0.01000075	          0.28635409	          0.09879353	          0.09237118	          0.16716002	          0.01296585	          0.15733933	          0.01894441	          0.04807344	          0.01000446	          0.04426206	          0.01000320	          0.01000022	          0.03948254	          0.06672561	          0.16894708	
